<svg width="14" height="15" viewBox="0 0 14 15" fill="none" xmlns="http://www.w3.org/2000/svg">
<g clip-path="url(#clip0_782_938)">
<path d="M13.0194 2.88227L4.95828 10.9428C4.90408 10.9972 4.83968 11.0404 4.76875 11.0698C4.69783 11.0993 4.62179 11.1144 4.54499 11.1144C4.46819 11.1144 4.39215 11.0993 4.32123 11.0698C4.2503 11.0404 4.1859 10.9972 4.1317 10.9428L1.01437 7.82252C0.960168 7.76811 0.89576 7.72493 0.824837 7.69548C0.753914 7.66602 0.677872 7.65085 0.601074 7.65085C0.524276 7.65085 0.448233 7.66602 0.37731 7.69548C0.306387 7.72493 0.241979 7.76811 0.187782 7.82252C0.133371 7.87672 0.0901966 7.94113 0.0607373 8.01205C0.031278 8.08297 0.0161133 8.15901 0.0161133 8.23581C0.0161133 8.31261 0.031278 8.38865 0.0607373 8.45958C0.0901966 8.5305 0.133371 8.59491 0.187782 8.6491L3.30628 11.767C3.63525 12.0954 4.08106 12.2798 4.54587 12.2798C5.01067 12.2798 5.45648 12.0954 5.78545 11.767L13.8459 3.70827C13.9003 3.65408 13.9434 3.58971 13.9728 3.51884C14.0022 3.44797 14.0173 3.372 14.0173 3.29527C14.0173 3.21854 14.0022 3.14257 13.9728 3.0717C13.9434 3.00083 13.9003 2.93646 13.8459 2.88227C13.7918 2.82786 13.7273 2.78469 13.6564 2.75523C13.5855 2.72577 13.5095 2.7106 13.4327 2.7106C13.3559 2.7106 13.2798 2.72577 13.2089 2.75523C13.138 2.78469 13.0736 2.82786 13.0194 2.88227Z" fill="#00B828"/>
</g>
<defs>
<clipPath id="clip0_782_938">
<rect width="14" height="14" fill="white" transform="translate(0 0.297485)"/>
</clipPath>
</defs>
</svg>
