<svg width="17" height="18" viewBox="0 0 17 18" fill="none" xmlns="http://www.w3.org/2000/svg">
<g clip-path="url(#clip0_782_932)">
<path d="M8.5 0.297485C6.81886 0.297485 5.17547 0.796002 3.77766 1.72999C2.37984 2.66399 1.29037 3.9915 0.647028 5.54468C0.00368293 7.09785 -0.164645 8.80692 0.163329 10.4558C0.491303 12.1046 1.30085 13.6191 2.4896 14.8079C3.67834 15.9966 5.1929 16.8062 6.84174 17.1342C8.49058 17.4621 10.1996 17.2938 11.7528 16.6505C13.306 16.0071 14.6335 14.9177 15.5675 13.5198C16.5015 12.122 17 10.4786 17 8.79749C17 6.54315 16.1045 4.38114 14.5104 2.78708C12.9164 1.19302 10.7543 0.297485 8.5 0.297485V0.297485ZM8.5 15.8808C7.09905 15.8808 5.72956 15.4654 4.56471 14.6871C3.39987 13.9087 2.49198 12.8025 1.95586 11.5082C1.41974 10.2139 1.27946 8.78963 1.55277 7.4156C1.82609 6.04156 2.50071 4.77943 3.49133 3.78881C4.48195 2.79819 5.74408 2.12357 7.11811 1.85026C8.49215 1.57694 9.91637 1.71722 11.2107 2.25334C12.505 2.78946 13.6113 3.69735 14.3896 4.8622C15.1679 6.02705 15.5833 7.39654 15.5833 8.79749C15.5833 10.6761 14.8371 12.4778 13.5087 13.8062C12.1803 15.1345 10.3786 15.8808 8.5 15.8808Z" fill="#565656"/>
<path d="M10.7454 6.8802L7.77889 9.8552L6.18939 8.1977C6.1256 8.12795 6.0485 8.07168 5.96263 8.03219C5.87675 7.99271 5.78385 7.97081 5.68938 7.96778C5.59491 7.96476 5.50079 7.98067 5.41257 8.01458C5.32434 8.04849 5.2438 8.09972 5.17568 8.16524C5.10756 8.23076 5.05324 8.30925 5.01592 8.39609C4.9786 8.48293 4.95904 8.57636 4.95839 8.67087C4.95774 8.76539 4.97601 8.85908 5.01213 8.94642C5.04824 9.03376 5.10147 9.113 5.16869 9.17945L6.8021 10.8795C6.92392 11.011 7.07115 11.1165 7.23491 11.1896C7.39866 11.2626 7.57552 11.3017 7.75481 11.3045H7.77819C7.95389 11.305 8.12796 11.2707 8.29029 11.2035C8.45262 11.1362 8.59998 11.0374 8.72381 10.9127L11.7498 7.88674C11.8159 7.82079 11.8684 7.74247 11.9042 7.65624C11.94 7.57002 11.9585 7.47759 11.9586 7.38422C11.9587 7.29085 11.9404 7.19838 11.9048 7.11208C11.8691 7.02578 11.8168 6.94735 11.7509 6.88126C11.6849 6.81517 11.6066 6.76271 11.5204 6.72689C11.4342 6.69107 11.3417 6.67258 11.2484 6.67249C11.155 6.67239 11.0625 6.69068 10.9762 6.72632C10.8899 6.76196 10.8115 6.81425 10.7454 6.8802Z" fill="#565656"/>
</g>
<defs>
<clipPath id="clip0_782_932">
<rect width="17" height="17" fill="white" transform="translate(0 0.297485)"/>
</clipPath>
</defs>
</svg>
