<svg width="76" height="76" viewBox="0 0 76 76" fill="none" xmlns="http://www.w3.org/2000/svg">
<g id="gift">
<path id="Vector" d="M63.3332 38V69.6667H12.6665V38" stroke="white" stroke-width="2" stroke-linecap="round" stroke-linejoin="round"/>
<path id="Vector_2" d="M69.6668 22.167H6.3335V38.0003H69.6668V22.167Z" stroke="white" stroke-width="2" stroke-linecap="round" stroke-linejoin="round"/>
<path id="Vector_3" d="M38 69.667V22.167" stroke="white" stroke-width="2" stroke-linecap="round" stroke-linejoin="round"/>
<path id="Vector_4" d="M38.0002 22.1663H23.7502C21.6505 22.1663 19.6369 21.3323 18.1522 19.8476C16.6676 18.3629 15.8335 16.3493 15.8335 14.2497C15.8335 12.15 16.6676 10.1364 18.1522 8.65175C19.6369 7.16708 21.6505 6.33301 23.7502 6.33301C34.8335 6.33301 38.0002 22.1663 38.0002 22.1663Z" stroke="white" stroke-width="2" stroke-linecap="round" stroke-linejoin="round"/>
<path id="Vector_5" d="M38 22.1663H52.25C54.3496 22.1663 56.3633 21.3323 57.8479 19.8476C59.3326 18.3629 60.1667 16.3493 60.1667 14.2497C60.1667 12.15 59.3326 10.1364 57.8479 8.65175C56.3633 7.16708 54.3496 6.33301 52.25 6.33301C41.1667 6.33301 38 22.1663 38 22.1663Z" stroke="white" stroke-width="2" stroke-linecap="round" stroke-linejoin="round"/>
</g>
</svg>
