<svg width="175" height="175" viewBox="0 0 175 175" fill="none" xmlns="http://www.w3.org/2000/svg">
<circle cx="87.5" cy="87.5" r="86.5" stroke="#9D4EDD" stroke-width="2"/>
<circle cx="87.5001" cy="87.4996" r="78.4918" fill="#9D4EDD"/>
<path d="M37.9435 68.4512H33.9889L40.0145 50.9966H44.7702L50.7872 68.4512H46.8327L42.4605 54.9853H42.3241L37.9435 68.4512ZM37.6963 61.5904H47.0372V64.4711H37.6963V61.5904ZM63.6693 50.9966H67.3597V62.3319C67.3597 63.6046 67.0557 64.7182 66.4477 65.6728C65.8455 66.6273 65.0017 67.3716 63.9165 67.9057C62.8312 68.4341 61.567 68.6983 60.1239 68.6983C58.675 68.6983 57.408 68.4341 56.3227 67.9057C55.2375 67.3716 54.3937 66.6273 53.7915 65.6728C53.1892 64.7182 52.8881 63.6046 52.8881 62.3319V50.9966H56.5784V62.0165C56.5784 62.6813 56.7233 63.2722 57.0131 63.7892C57.3085 64.3063 57.7233 64.7125 58.2574 65.008C58.7915 65.3034 59.4136 65.4512 60.1239 65.4512C60.8398 65.4512 61.4619 65.3034 61.9903 65.008C62.5244 64.7125 62.9364 64.3063 63.2261 63.7892C63.5216 63.2722 63.6693 62.6813 63.6693 62.0165V50.9966ZM75.9506 50.9966H80.5017L85.3085 62.7239H85.5131L90.3199 50.9966H94.871V68.4512H91.2915V57.0904H91.1466L86.6295 68.3659H84.192L79.675 57.0478H79.5301V68.4512H75.9506V50.9966ZM100.92 68.4512H96.9655L102.991 50.9966H107.747L113.764 68.4512H109.809L105.437 54.9853H105.301L100.92 68.4512ZM100.673 61.5904H110.014V64.4711H100.673V61.5904ZM115.865 68.4512V50.9966H119.555V65.4086H127.038V68.4512H115.865ZM129.482 68.4512V50.9966H133.172V65.4086H140.655V68.4512H129.482Z" fill="white"/>
<path d="M58.0654 102.334L70.943 89.4562C71.4863 88.9097 72.1324 88.4761 72.8441 88.1804C73.5557 87.8847 74.3189 87.7328 75.0895 87.7334H99.443C100.214 87.7328 100.977 87.8847 101.688 88.1804C102.4 88.4761 103.046 88.9097 103.59 89.4562L116.467 102.334" stroke="white" stroke-width="2" stroke-linecap="round" stroke-linejoin="round"/>
<path d="M63.6724 116.935V140.295C63.6724 141.844 64.2877 143.33 65.3829 144.425C66.4782 145.52 67.9636 146.135 69.5125 146.135H104.554C106.102 146.135 107.588 145.52 108.683 144.425C109.778 143.33 110.394 141.844 110.394 140.295V116.935" stroke="white" stroke-width="2" stroke-linecap="round" stroke-linejoin="round"/>
<path d="M96.6108 146.136V134.455C96.6108 132.906 95.9955 131.421 94.9003 130.326C93.805 129.231 92.3196 128.615 90.7707 128.615H84.9305C83.3816 128.615 81.8961 129.231 80.8009 130.326C79.7056 131.421 79.0903 132.906 79.0903 134.455V146.136" stroke="white" stroke-width="2" stroke-linecap="round" stroke-linejoin="round"/>
<path d="M58.0654 102.334H116.467" stroke="white" stroke-width="2" stroke-linecap="round" stroke-linejoin="round"/>
<path d="M116.467 102.334V111.094C116.467 112.643 115.852 114.129 114.757 115.224C113.661 116.319 112.176 116.934 110.627 116.934C108.921 116.84 107.291 116.195 105.984 115.095C105.636 114.843 105.217 114.707 104.787 114.707C104.357 114.707 103.938 114.843 103.59 115.095C102.282 116.195 100.653 116.84 98.9466 116.934C97.2405 116.84 95.6111 116.195 94.3036 115.095C93.9552 114.843 93.5363 114.707 93.1064 114.707C92.6765 114.707 92.2576 114.843 91.9092 115.095C90.6018 116.195 88.9723 116.84 87.2662 116.934C85.5601 116.84 83.9307 116.195 82.6233 115.095C82.2749 114.843 81.856 114.707 81.4261 114.707C80.9962 114.707 80.5773 114.843 80.2289 115.095C78.9214 116.195 77.292 116.84 75.5859 116.934C73.8798 116.84 72.2504 116.195 70.943 115.095C70.5946 114.843 70.1756 114.707 69.7458 114.707C69.3159 114.707 68.8969 114.843 68.5485 115.095C67.2411 116.195 65.6117 116.84 63.9056 116.934C62.3567 116.934 60.8712 116.319 59.776 115.224C58.6807 114.129 58.0654 112.643 58.0654 111.094V102.334" stroke="white" stroke-width="2" stroke-linecap="round" stroke-linejoin="round"/>
</svg>
