<svg width="175" height="175" viewBox="0 0 175 175" fill="none" xmlns="http://www.w3.org/2000/svg">
<circle cx="87.5" cy="87.5" r="86.5" stroke="#9D4EDD" stroke-width="2"/>
<circle cx="87.5001" cy="87.4996" r="78.4918" fill="#9D4EDD"/>
<path d="M43.9903 68.4512H40.0358L46.0614 50.9966H50.817L56.8341 68.4512H52.8795L48.5074 54.9853H48.371L43.9903 68.4512ZM43.7432 61.5904H53.0841V64.4711H43.7432V61.5904ZM69.7162 50.9966H73.4065V62.3319C73.4065 63.6046 73.1026 64.7182 72.4946 65.6728C71.8923 66.6273 71.0486 67.3716 69.9634 67.9057C68.8781 68.4341 67.6139 68.6983 66.1707 68.6983C64.7219 68.6983 63.4548 68.4341 62.3696 67.9057C61.2844 67.3716 60.4406 66.6273 59.8384 65.6728C59.2361 64.7182 58.9349 63.6046 58.9349 62.3319V50.9966H62.6253V62.0165C62.6253 62.6813 62.7702 63.2722 63.0599 63.7892C63.3554 64.3063 63.7702 64.7125 64.3043 65.008C64.8384 65.3034 65.4605 65.4512 66.1707 65.4512C66.8866 65.4512 67.5088 65.3034 68.0372 65.008C68.5713 64.7125 68.9832 64.3063 69.273 63.7892C69.5685 63.2722 69.7162 62.6813 69.7162 62.0165V50.9966ZM93.5713 56.6387C93.452 56.2239 93.2844 55.8574 93.0685 55.5392C92.8526 55.2154 92.5884 54.9426 92.2759 54.7211C91.969 54.4938 91.6168 54.3205 91.219 54.2012C90.827 54.0819 90.3923 54.0222 89.9151 54.0222C89.023 54.0222 88.2389 54.2438 87.5628 54.687C86.8923 55.1301 86.3696 55.775 85.9946 56.6216C85.6196 57.4625 85.4321 58.4909 85.4321 59.7069C85.4321 60.9228 85.6168 61.9569 85.9861 62.8091C86.3554 63.6614 86.8781 64.312 87.5543 64.7608C88.2304 65.204 89.0287 65.4256 89.9491 65.4256C90.7844 65.4256 91.4974 65.2779 92.0884 64.9824C92.6849 64.6813 93.1395 64.258 93.452 63.7125C93.7702 63.1671 93.9293 62.5222 93.9293 61.7779L94.6793 61.8887H90.1793V59.1103H97.4832V61.3091C97.4832 62.8432 97.1594 64.1614 96.5116 65.2637C95.8639 66.3603 94.9719 67.2069 93.8355 67.8034C92.6991 68.3944 91.398 68.6898 89.9321 68.6898C88.2957 68.6898 86.8582 68.329 85.6196 67.6074C84.381 66.8801 83.4151 65.8489 82.7219 64.5137C82.0344 63.1728 81.6906 61.5819 81.6906 59.7409C81.6906 58.3262 81.8952 57.0648 82.3043 55.9569C82.719 54.8432 83.2986 53.9 84.0429 53.1273C84.7872 52.3546 85.6537 51.7665 86.6423 51.3631C87.631 50.9597 88.702 50.758 89.8554 50.758C90.844 50.758 91.7645 50.9029 92.6168 51.1926C93.469 51.4767 94.2247 51.8801 94.8838 52.4029C95.5486 52.9256 96.0912 53.5478 96.5116 54.2694C96.9321 54.9853 97.202 55.775 97.3213 56.6387H93.5713ZM103.946 50.9966V68.4512H100.255V50.9966H103.946ZM106.982 68.4512V50.9966H118.539V54.0392H110.672V58.1983H117.772V61.2409H110.672V68.4512H106.982ZM120.356 54.0392V50.9966H134.691V54.0392H129.348V68.4512H125.7V54.0392H120.356Z" fill="white"/>
<path d="M113.333 114V145.667H62.6665V114" stroke="white" stroke-width="2" stroke-linecap="round" stroke-linejoin="round"/>
<path d="M119.667 98.167H56.3335V114H119.667V98.167Z" stroke="white" stroke-width="2" stroke-linecap="round" stroke-linejoin="round"/>
<path d="M88 145.667V98.167" stroke="white" stroke-width="2" stroke-linecap="round" stroke-linejoin="round"/>
<path d="M88.0002 98.1663H73.7502C71.6505 98.1663 69.6369 97.3323 68.1522 95.8476C66.6676 94.3629 65.8335 92.3493 65.8335 90.2497C65.8335 88.15 66.6676 86.1364 68.1522 84.6517C69.6369 83.1671 71.6505 82.333 73.7502 82.333C84.8335 82.333 88.0002 98.1663 88.0002 98.1663Z" stroke="white" stroke-width="2" stroke-linecap="round" stroke-linejoin="round"/>
<path d="M88 98.1663H102.25C104.35 98.1663 106.363 97.3323 107.848 95.8476C109.333 94.3629 110.167 92.3493 110.167 90.2497C110.167 88.15 109.333 86.1364 107.848 84.6517C106.363 83.1671 104.35 82.333 102.25 82.333C91.1667 82.333 88 98.1663 88 98.1663Z" stroke="white" stroke-width="2" stroke-linecap="round" stroke-linejoin="round"/>
</svg>
