<svg width="14" height="15" viewBox="0 0 14 15" fill="none" xmlns="http://www.w3.org/2000/svg">
<g clip-path="url(#clip0_782_937)">
<path d="M13.8293 0.468644C13.7199 0.359286 13.5716 0.297852 13.4169 0.297852C13.2622 0.297852 13.1139 0.359286 13.0045 0.468644L7.00024 6.47289L0.995992 0.468644C0.886601 0.359286 0.738254 0.297852 0.583575 0.297852C0.428896 0.297852 0.280549 0.359286 0.171158 0.468644V0.468644C0.0618002 0.578035 0.000366211 0.726381 0.000366211 0.88106C0.000366211 1.03574 0.0618002 1.18409 0.171158 1.29348L6.17541 7.29773L0.171158 13.302C0.0618002 13.4114 0.000366211 13.5597 0.000366211 13.7144C0.000366211 13.8691 0.0618002 14.0174 0.171158 14.1268V14.1268C0.280549 14.2362 0.428896 14.2976 0.583575 14.2976C0.738254 14.2976 0.886601 14.2362 0.995992 14.1268L7.00024 8.12256L13.0045 14.1268C13.1139 14.2362 13.2622 14.2976 13.4169 14.2976C13.5716 14.2976 13.7199 14.2362 13.8293 14.1268C13.9387 14.0174 14.0001 13.8691 14.0001 13.7144C14.0001 13.5597 13.9387 13.4114 13.8293 13.302L7.82508 7.29773L13.8293 1.29348C13.9387 1.18409 14.0001 1.03574 14.0001 0.88106C14.0001 0.726381 13.9387 0.578035 13.8293 0.468644V0.468644Z" fill="#FF0000"/>
</g>
<defs>
<clipPath id="clip0_782_937">
<rect width="14" height="14" fill="white" transform="translate(0 0.297485)"/>
</clipPath>
</defs>
</svg>
