<svg width="71" height="71" viewBox="0 0 71 71" fill="none" xmlns="http://www.w3.org/2000/svg">
<g id="store">
<path id="Vector" d="M6.06543 21.3338L18.943 8.45625C19.4863 7.9097 20.1324 7.47609 20.8441 7.1804C21.5557 6.88471 22.3189 6.73279 23.0895 6.7334H47.443C48.2136 6.73279 48.9768 6.88471 49.6884 7.1804C50.4001 7.47609 51.0462 7.9097 51.5895 8.45625L64.4671 21.3338" stroke="white" stroke-width="2" stroke-linecap="round" stroke-linejoin="round"/>
<path id="Vector_2" d="M11.6724 35.9346V59.2952C11.6724 60.8441 12.2877 62.3296 13.3829 63.4248C14.4782 64.5201 15.9636 65.1354 17.5125 65.1354H52.5535C54.1024 65.1354 55.5879 64.5201 56.6831 63.4248C57.7784 62.3296 58.3937 60.8441 58.3937 59.2952V35.9346" stroke="white" stroke-width="2" stroke-linecap="round" stroke-linejoin="round"/>
<path id="Vector_3" d="M44.6108 65.1357V53.4554C44.6108 51.9065 43.9955 50.421 42.9003 49.3258C41.805 48.2305 40.3196 47.6152 38.7707 47.6152H32.9305C31.3816 47.6152 29.8961 48.2305 28.8009 49.3258C27.7056 50.421 27.0903 51.9065 27.0903 53.4554V65.1357" stroke="white" stroke-width="2" stroke-linecap="round" stroke-linejoin="round"/>
<path id="Vector_4" d="M6.06543 21.334H64.4671" stroke="white" stroke-width="2" stroke-linecap="round" stroke-linejoin="round"/>
<path id="Vector_5" d="M64.4671 21.334V30.0942C64.4671 31.6431 63.8518 33.1286 62.7565 34.2238C61.6613 35.3191 60.1758 35.9344 58.6269 35.9344C56.9208 35.8405 55.2914 35.1949 53.984 34.0947C53.6356 33.843 53.2166 33.7074 52.7867 33.7074C52.3569 33.7074 51.9379 33.843 51.5895 34.0947C50.2821 35.1949 48.6527 35.8405 46.9466 35.9344C45.2405 35.8405 43.6111 35.1949 42.3036 34.0947C41.9552 33.843 41.5363 33.7074 41.1064 33.7074C40.6765 33.7074 40.2576 33.843 39.9092 34.0947C38.6018 35.1949 36.9723 35.8405 35.2662 35.9344C33.5601 35.8405 31.9307 35.1949 30.6233 34.0947C30.2749 33.843 29.856 33.7074 29.4261 33.7074C28.9962 33.7074 28.5773 33.843 28.2289 34.0947C26.9214 35.1949 25.292 35.8405 23.5859 35.9344C21.8798 35.8405 20.2504 35.1949 18.943 34.0947C18.5946 33.843 18.1756 33.7074 17.7458 33.7074C17.3159 33.7074 16.8969 33.843 16.5485 34.0947C15.2411 35.1949 13.6117 35.8405 11.9056 35.9344C10.3567 35.9344 8.87122 35.3191 7.77597 34.2238C6.68073 33.1286 6.06543 31.6431 6.06543 30.0942V21.334" stroke="white" stroke-width="2" stroke-linecap="round" stroke-linejoin="round"/>
</g>
</svg>
