<svg width="20" height="20" viewBox="0 0 20 20" fill="none" xmlns="http://www.w3.org/2000/svg">
<g id="fi-rr-angle-double-small-left">
<path id="Vector" d="M8.73322 15.8333C8.5146 15.8324 8.3051 15.7456 8.14988 15.5917L4.32488 11.7667C3.85672 11.2979 3.59375 10.6625 3.59375 10C3.59375 9.33751 3.85672 8.70209 4.32488 8.23334L8.14988 4.40834C8.30602 4.25313 8.51723 4.16602 8.73738 4.16602C8.95754 4.16602 9.16875 4.25313 9.32488 4.40834C9.40299 4.48581 9.46499 4.57798 9.50729 4.67953C9.5496 4.78108 9.57138 4.89 9.57138 5.00001C9.57138 5.11002 9.5496 5.21894 9.50729 5.32049C9.46499 5.42204 9.40299 5.51421 9.32488 5.59168L5.49988 9.40834C5.42178 9.48581 5.35978 9.57798 5.31747 9.67953C5.27517 9.78108 5.25339 9.89 5.25339 10C5.25339 10.11 5.27517 10.2189 5.31747 10.3205C5.35978 10.422 5.42178 10.5142 5.49988 10.5917L9.32488 14.4083C9.40299 14.4858 9.46499 14.578 9.50729 14.6795C9.5496 14.7811 9.57138 14.89 9.57138 15C9.57138 15.11 9.5496 15.2189 9.50729 15.3205C9.46499 15.422 9.40299 15.5142 9.32488 15.5917C9.24702 15.6689 9.15467 15.73 9.05314 15.7715C8.95161 15.813 8.84289 15.834 8.73322 15.8333Z" fill="#374957"/>
<path id="Vector_2" d="M14.5666 15.8333C14.348 15.8324 14.1385 15.7456 13.9833 15.5917L8.98331 10.5917C8.90521 10.5142 8.84321 10.422 8.80091 10.3205C8.7586 10.2189 8.73682 10.11 8.73682 10C8.73682 9.89 8.7586 9.78108 8.80091 9.67953C8.84321 9.57798 8.90521 9.48581 8.98331 9.40834L13.9833 4.40834C14.1394 4.25313 14.3507 4.16602 14.5708 4.16602C14.791 4.16602 15.0022 4.25313 15.1583 4.40834C15.2364 4.48581 15.2984 4.57798 15.3407 4.67953C15.383 4.78108 15.4048 4.89 15.4048 5.00001C15.4048 5.11002 15.383 5.21894 15.3407 5.32049C15.2984 5.42204 15.2364 5.51421 15.1583 5.59168L10.75 10L15.1583 14.4083C15.2364 14.4858 15.2984 14.578 15.3407 14.6795C15.383 14.7811 15.4048 14.89 15.4048 15C15.4048 15.11 15.383 15.2189 15.3407 15.3205C15.2984 15.422 15.2364 15.5142 15.1583 15.5917C15.0804 15.6689 14.9881 15.73 14.8866 15.7715C14.785 15.813 14.6763 15.834 14.5666 15.8333Z" fill="#374957"/>
</g>
</svg>
