<svg width="120" height="120" viewBox="0 0 120 120" fill="none" xmlns="http://www.w3.org/2000/svg">
<circle cx="60" cy="60" r="60" fill="#C2C2C2"/>
<path d="M14.5732 49.8574H10.9482L16.4717 33.8574H20.8311L26.3467 49.8574H22.7217L18.7139 37.5137H18.5889L14.5732 49.8574ZM14.3467 43.5684H22.9092V46.209H14.3467V43.5684ZM38.1553 33.8574H41.5381V44.248C41.5381 45.4147 41.2594 46.4355 40.7021 47.3105C40.1501 48.1855 39.3766 48.8678 38.3818 49.3574C37.387 49.8418 36.2282 50.084 34.9053 50.084C33.5771 50.084 32.4157 49.8418 31.4209 49.3574C30.4261 48.8678 29.6527 48.1855 29.1006 47.3105C28.5485 46.4355 28.2725 45.4147 28.2725 44.248V33.8574H31.6553V43.959C31.6553 44.5684 31.7881 45.11 32.0537 45.584C32.3245 46.0579 32.7048 46.4303 33.1943 46.7012C33.6839 46.972 34.2542 47.1074 34.9053 47.1074C35.5615 47.1074 36.1318 46.972 36.6162 46.7012C37.1058 46.4303 37.4834 46.0579 37.749 45.584C38.0199 45.11 38.1553 44.5684 38.1553 43.959V33.8574ZM49.4131 33.8574H53.585L57.9912 44.6074H58.1787L62.585 33.8574H66.7568V49.8574H63.4756V39.4434H63.3428L59.2021 49.7793H56.9678L52.8271 39.4043H52.6943V49.8574H49.4131V33.8574ZM72.3018 49.8574H68.6768L74.2002 33.8574H78.5596L84.0752 49.8574H80.4502L76.4424 37.5137H76.3174L72.3018 49.8574ZM72.0752 43.5684H80.6377V46.209H72.0752V43.5684ZM86.001 49.8574V33.8574H89.3838V47.0684H96.2432V49.8574H86.001ZM98.4834 49.8574V33.8574H101.866V47.0684H108.726V49.8574H98.4834Z" fill="white"/>
<path d="M35.48 72.3337L45.77 62.0437C46.2041 61.6069 46.7204 61.2604 47.2891 61.0242C47.8577 60.7879 48.4675 60.6665 49.0833 60.667H68.5433C69.1591 60.6665 69.7689 60.7879 70.3376 61.0242C70.9062 61.2604 71.4225 61.6069 71.8566 62.0437L82.1466 72.3337" stroke="white" stroke-width="2" stroke-linecap="round" stroke-linejoin="round"/>
<path d="M39.96 84V102.667C39.96 103.904 40.4516 105.091 41.3268 105.966C42.202 106.842 43.389 107.333 44.6266 107.333H72.6266C73.8643 107.333 75.0513 106.842 75.9265 105.966C76.8016 105.091 77.2933 103.904 77.2933 102.667V84" stroke="white" stroke-width="2" stroke-linecap="round" stroke-linejoin="round"/>
<path d="M66.2798 107.333V97.9997C66.2798 96.762 65.7881 95.575 64.9129 94.6998C64.0378 93.8247 62.8508 93.333 61.6131 93.333H56.9465C55.7088 93.333 54.5218 93.8247 53.6466 94.6998C52.7715 95.575 52.2798 96.762 52.2798 97.9997V107.333" stroke="white" stroke-width="2" stroke-linecap="round" stroke-linejoin="round"/>
<path d="M35.48 72.333H82.1466" stroke="white" stroke-width="2" stroke-linecap="round" stroke-linejoin="round"/>
<path d="M82.1466 72.333V79.333C82.1466 80.5707 81.655 81.7577 80.7798 82.6328C79.9046 83.508 78.7177 83.9997 77.48 83.9997C76.1167 83.9246 74.8147 83.4087 73.77 82.5297C73.4916 82.3285 73.1568 82.2202 72.8133 82.2202C72.4698 82.2202 72.1351 82.3285 71.8566 82.5297C70.8119 83.4087 69.5099 83.9246 68.1466 83.9997C66.7834 83.9246 65.4813 83.4087 64.4366 82.5297C64.1582 82.3285 63.8235 82.2202 63.48 82.2202C63.1365 82.2202 62.8017 82.3285 62.5233 82.5297C61.4786 83.4087 60.1766 83.9246 58.8133 83.9997C57.45 83.9246 56.148 83.4087 55.1033 82.5297C54.8249 82.3285 54.4901 82.2202 54.1466 82.2202C53.8031 82.2202 53.4684 82.3285 53.19 82.5297C52.1453 83.4087 50.8433 83.9246 49.48 83.9997C48.1167 83.9246 46.8147 83.4087 45.77 82.5297C45.4916 82.3285 45.1568 82.2202 44.8133 82.2202C44.4698 82.2202 44.1351 82.3285 43.8566 82.5297C42.8119 83.4087 41.5099 83.9246 40.1466 83.9997C38.909 83.9997 37.722 83.508 36.8468 82.6328C35.9716 81.7577 35.48 80.5707 35.48 79.333V72.333" stroke="white" stroke-width="2" stroke-linecap="round" stroke-linejoin="round"/>
</svg>
