<svg width="120" height="121" viewBox="0 0 120 121" fill="none" xmlns="http://www.w3.org/2000/svg">
<circle cx="60" cy="60.2295" r="60" fill="#C2C2C2"/>
<path d="M20.6162 50.0869H16.9912L22.5146 34.0869H26.874L32.3896 50.0869H28.7646L24.7568 37.7432H24.6318L20.6162 50.0869ZM20.3896 43.7979H28.9521V46.4385H20.3896V43.7979ZM44.1982 34.0869H47.5811V44.4775C47.5811 45.6442 47.3024 46.665 46.7451 47.54C46.193 48.415 45.4196 49.0973 44.4248 49.5869C43.43 50.0713 42.2712 50.3135 40.9482 50.3135C39.6201 50.3135 38.4587 50.0713 37.4639 49.5869C36.4691 49.0973 35.6956 48.415 35.1436 47.54C34.5915 46.665 34.3154 45.6442 34.3154 44.4775V34.0869H37.6982V44.1885C37.6982 44.7979 37.8311 45.3395 38.0967 45.8135C38.3675 46.2874 38.7477 46.6598 39.2373 46.9307C39.7269 47.2015 40.2972 47.3369 40.9482 47.3369C41.6045 47.3369 42.1748 47.2015 42.6592 46.9307C43.1488 46.6598 43.5264 46.2874 43.792 45.8135C44.0628 45.3395 44.1982 44.7979 44.1982 44.1885V34.0869ZM66.0654 39.2588C65.9561 38.8786 65.8024 38.5426 65.6045 38.251C65.4066 37.9541 65.1644 37.7041 64.8779 37.501C64.5967 37.2926 64.2738 37.1338 63.9092 37.0244C63.5498 36.915 63.1514 36.8604 62.7139 36.8604C61.8962 36.8604 61.1774 37.0635 60.5576 37.4697C59.943 37.876 59.4639 38.4671 59.1201 39.2432C58.7764 40.014 58.6045 40.9567 58.6045 42.0713C58.6045 43.1859 58.7738 44.1338 59.1123 44.915C59.4508 45.6963 59.93 46.2926 60.5498 46.7041C61.1696 47.1104 61.9014 47.3135 62.7451 47.3135C63.5107 47.3135 64.1644 47.1781 64.7061 46.9072C65.2529 46.6312 65.6696 46.2432 65.9561 45.7432C66.2477 45.2432 66.3936 44.652 66.3936 43.9697L67.0811 44.0713H62.9561V41.5244H69.6514V43.54C69.6514 44.9463 69.3545 46.1546 68.7607 47.165C68.167 48.1702 67.3493 48.9463 66.3076 49.4932C65.266 50.0348 64.0732 50.3057 62.7295 50.3057C61.2295 50.3057 59.9118 49.9749 58.7764 49.3135C57.641 48.6468 56.7555 47.7015 56.1201 46.4775C55.4899 45.2484 55.1748 43.79 55.1748 42.1025C55.1748 40.8057 55.3623 39.6494 55.7373 38.6338C56.1175 37.613 56.6488 36.7484 57.3311 36.04C58.0133 35.3317 58.8076 34.7926 59.7139 34.4229C60.6201 34.0531 61.6019 33.8682 62.6592 33.8682C63.5654 33.8682 64.4092 34.001 65.1904 34.2666C65.9717 34.527 66.6644 34.8968 67.2686 35.376C67.8779 35.8551 68.3753 36.4255 68.7607 37.0869C69.1462 37.7432 69.3936 38.4671 69.5029 39.2588H66.0654ZM75.5752 34.0869V50.0869H72.1924V34.0869H75.5752ZM78.3584 50.0869V34.0869H88.9521V36.876H81.7412V40.6885H88.249V43.4775H81.7412V50.0869H78.3584ZM90.6182 36.876V34.0869H103.759V36.876H98.8604V50.0869H95.5166V36.876H90.6182Z" fill="white"/>
<path d="M77.8574 80.5869V102.908H42.1431V80.5869" stroke="white" stroke-width="2" stroke-linecap="round" stroke-linejoin="round"/>
<path d="M82.3216 69.4258H37.6787V80.5865H82.3216V69.4258Z" stroke="white" stroke-width="2" stroke-linecap="round" stroke-linejoin="round"/>
<path d="M60 102.908V69.4258" stroke="white" stroke-width="2" stroke-linecap="round" stroke-linejoin="round"/>
<path d="M60 69.4254H49.9554C48.4754 69.4254 47.056 68.8374 46.0094 67.7909C44.9629 66.7444 44.375 65.325 44.375 63.845C44.375 62.365 44.9629 60.9456 46.0094 59.8991C47.056 58.8526 48.4754 58.2646 49.9554 58.2646C57.7679 58.2646 60 69.4254 60 69.4254Z" stroke="white" stroke-width="2" stroke-linecap="round" stroke-linejoin="round"/>
<path d="M60 69.4254H70.0446C71.5246 69.4254 72.944 68.8374 73.9906 67.7909C75.0371 66.7444 75.625 65.325 75.625 63.845C75.625 62.365 75.0371 60.9456 73.9906 59.8991C72.944 58.8526 71.5246 58.2646 70.0446 58.2646C62.2321 58.2646 60 69.4254 60 69.4254Z" stroke="white" stroke-width="2" stroke-linecap="round" stroke-linejoin="round"/>
</svg>
