<svg width="24" height="24" viewBox="0 0 24 24" fill="none" xmlns="http://www.w3.org/2000/svg">
<g clip-path="url(#clip0_511_32)">
<path d="M12.0002 1.99997C13.3267 2.00432 14.6392 2.27171 15.8617 2.78666C17.0842 3.30161 18.1924 4.05389 19.1222 4.99997H16.0002C15.735 4.99997 15.4806 5.10533 15.2931 5.29286C15.1056 5.4804 15.0002 5.73476 15.0002 5.99997C15.0002 6.26519 15.1056 6.51954 15.2931 6.70708C15.4806 6.89461 15.735 6.99997 16.0002 6.99997H20.1432C20.6356 6.99971 21.1078 6.80397 21.456 6.45578C21.8042 6.10758 21.9999 5.6354 22.0002 5.14297V0.999971C22.0002 0.734754 21.8948 0.4804 21.7073 0.292864C21.5198 0.105328 21.2654 -2.92115e-05 21.0002 -2.92115e-05C20.735 -2.92115e-05 20.4806 0.105328 20.2931 0.292864C20.1056 0.4804 20.0002 0.734754 20.0002 0.999971V3.07797C18.3474 1.58942 16.3128 0.590381 14.1243 0.19272C11.9358 -0.204941 9.67983 0.0144827 7.60899 0.826418C5.53815 1.63835 3.73422 3.01074 2.39921 4.7899C1.06421 6.56905 0.250844 8.68471 0.0502025 10.9C0.0372859 11.0392 0.0535183 11.1797 0.0978654 11.3123C0.142213 11.4449 0.213702 11.5669 0.307779 11.6704C0.401856 11.7738 0.516457 11.8566 0.644281 11.9133C0.772104 11.9701 0.910348 11.9996 1.0502 12C1.29479 12.0031 1.53174 11.9148 1.71466 11.7524C1.89759 11.59 2.01332 11.3652 2.0392 11.122C2.26182 8.63272 3.40718 6.31667 5.25028 4.62881C7.09339 2.94094 9.50102 2.00326 12.0002 1.99997Z" fill="#FF9E00"/>
<path d="M22.9511 12.0002C22.7065 11.9971 22.4696 12.0854 22.2867 12.2478C22.1037 12.4102 21.988 12.635 21.9621 12.8782C21.7968 14.7815 21.089 16.5974 19.9228 18.1105C18.7565 19.6235 17.1807 20.7704 15.3823 21.4148C13.5839 22.0593 11.6383 22.1743 9.77647 21.7464C7.91463 21.3184 6.21462 20.3653 4.87812 19.0002H8.00012C8.26534 19.0002 8.51969 18.8949 8.70723 18.7074C8.89477 18.5198 9.00012 18.2655 9.00012 18.0002C9.00012 17.735 8.89477 17.4807 8.70723 17.2931C8.51969 17.1056 8.26534 17.0002 8.00012 17.0002H3.85712C3.61322 17.0001 3.37168 17.0481 3.14632 17.1413C2.92096 17.2346 2.7162 17.3714 2.54373 17.5439C2.37127 17.7163 2.23449 17.9211 2.14121 18.1464C2.04793 18.3718 1.99999 18.6133 2.00012 18.8572V23.0003C2.00012 23.2655 2.10548 23.5198 2.29302 23.7074C2.48055 23.8949 2.73491 24.0003 3.00012 24.0003C3.26534 24.0003 3.51969 23.8949 3.70723 23.7074C3.89477 23.5198 4.00012 23.2655 4.00012 23.0003V20.9223C5.65295 22.4108 7.68753 23.4099 9.87602 23.8075C12.0645 24.2052 14.3205 23.9858 16.3913 23.1738C18.4622 22.3619 20.2661 20.9895 21.6011 19.2103C22.9361 17.4312 23.7495 15.3155 23.9501 13.1002C23.963 12.961 23.9468 12.8206 23.9025 12.6879C23.8581 12.5553 23.7866 12.4333 23.6925 12.3298C23.5985 12.2264 23.4839 12.1436 23.356 12.0869C23.2282 12.0301 23.09 12.0006 22.9501 12.0002H22.9511Z" fill="#FF9E00"/>
</g>
<defs>
<clipPath id="clip0_511_32">
<rect width="24" height="24" fill="white"/>
</clipPath>
</defs>
</svg>
