<svg width="14" height="14" viewBox="0 0 14 14" fill="none" xmlns="http://www.w3.org/2000/svg">
<g clip-path="url(#clip0_497_256)">
<path d="M13.1454 4.93502C12.8751 4.66378 12.5536 4.44885 12.1997 4.30266C11.8457 4.15648 11.4663 4.08194 11.0833 4.08335H1.63331L4.14165 1.57502C4.25087 1.46533 4.31205 1.31675 4.31172 1.16195C4.31139 1.00715 4.24959 0.858829 4.1399 0.749605C4.03021 0.64038 3.88162 0.579202 3.72683 0.57953C3.57203 0.579858 3.42371 0.641665 3.31448 0.751355L0.42698 3.63827C0.153585 3.91175 0 4.28262 0 4.66931C0 5.05601 0.153585 5.42688 0.42698 5.70036L3.31448 8.58844C3.36864 8.64275 3.43297 8.68586 3.50379 8.71532C3.57461 8.74477 3.65054 8.75998 3.72724 8.76009C3.80394 8.7602 3.87991 8.7452 3.95082 8.71595C4.02172 8.6867 4.08617 8.64376 4.14048 8.58961C4.19479 8.53545 4.23791 8.47112 4.26736 8.4003C4.29681 8.32948 4.31203 8.25355 4.31213 8.17685C4.31224 8.10015 4.29724 8.02417 4.26799 7.95327C4.23874 7.88237 4.19581 7.81792 4.14165 7.76361L1.62631 5.25002H11.0833C11.5474 5.25002 11.9926 5.4344 12.3208 5.76258C12.6489 6.09077 12.8333 6.53589 12.8333 7.00002V11.0834C12.8333 11.5475 12.6489 11.9926 12.3208 12.3208C11.9926 12.649 11.5474 12.8334 11.0833 12.8334H2.91665C2.76194 12.8334 2.61356 12.8948 2.50417 13.0042C2.39477 13.1136 2.33331 13.262 2.33331 13.4167C2.33331 13.5714 2.39477 13.7198 2.50417 13.8292C2.61356 13.9386 2.76194 14 2.91665 14H11.0833C11.8566 13.9991 12.5979 13.6915 13.1447 13.1447C13.6915 12.5979 13.9991 11.8566 14 11.0834V7.00002C14.0013 6.61639 13.9264 6.23632 13.7797 5.88185C13.633 5.52737 13.4174 5.20554 13.1454 4.93502Z" fill="white"/>
</g>
<defs>
<clipPath id="clip0_497_256">
<rect width="14" height="14" fill="white"/>
</clipPath>
</defs>
</svg>
